<svg id="Layer_1" data-name="Layer 1" xmlns="http://www.w3.org/2000/svg" xmlns:xlink="http://www.w3.org/1999/xlink" viewBox="0 0 190 190"><defs><style>.cls-1,.cls-5,.cls-6{fill:none;}.cls-2{fill:#4665ea;}.cls-3{font-size:18px;fill:#fff;font-family:Roboto-Regular, Roboto;}.cls-4{clip-path:url(#clip-path);}.cls-5,.cls-6{stroke:#fff;}.cls-5{stroke-linejoin:round;stroke-width:1.12px;}.cls-6{stroke-miterlimit:10;stroke-width:1.07px;}</style><clipPath id="clip-path" transform="translate(-5 -5)"><rect class="cls-1" x="68.29" y="53.67" width="63.42" height="63.42" rx="4.15"/></clipPath></defs><title>download</title><circle class="cls-2" cx="95" cy="95" r="95"/><text class="cls-3" transform="translate(54.95 160.3)">Download</text><g class="cls-4"><path class="cls-5" d="M122.3,93.32a198.8,198.8,0,0,1-23.53,11l-.28.1c-1.58.62-3.14,1.2-4.69,1.76h0c-5.2-.13-10.09-.47-14.62-1,.94-.25,1.87-.52,2.81-.79,5.46-1.57,10.86-3.38,16.16-5.42l.34-.13c2.7-1,6-2.39,9.72-4.07h0C113.34,94.53,118.05,94,122.3,93.32Z" transform="translate(-5 -5)"/><path class="cls-5" d="M121.7,75.38h0A185.84,185.84,0,0,1,98.49,86.92c-1.37.57-2.76,1.12-4.18,1.67l-.36.14h-.53c-4.91,0-9.67-.15-14.24-.39q6.75-2.06,13.33-4.59c2-.77,4-1.58,6-2.42q4-1.68,7.89-3.54h0c1.25-.11,2.51-.24,3.8-.39A105.19,105.19,0,0,0,121.7,75.38Z" transform="translate(-5 -5)"/><path class="cls-5" d="M111.07,63l0,0L111,63c-4.65,2.52-8.94,4.59-12.47,6.19-2.84,1.29-5.2,2.28-6.84,2.95h0c-4.38-.16-8.55-.47-12.47-.89q3.87-1.3,7.68-2.77,5.9-2.27,11.63-4.91L99.61,63A92.94,92.94,0,0,0,111,63Z" transform="translate(-5 -5)"/><path class="cls-5" d="M122.31,93.32a.88.88,0,0,0,0,.15.14.14,0,0,0,0,.06,25.75,25.75,0,0,1-5,8.76,24.6,24.6,0,0,1-3.44,3.25l-.06,0a24.59,24.59,0,0,1-15.17,5.22H79.18c2.72-.75,5.55-1.58,8.47-2.52q3-1,6.15-2.1h0c1.55-.56,3.11-1.14,4.69-1.76l.28-.1a198.8,198.8,0,0,0,23.53-11Z" transform="translate(-5 -5)"/><path class="cls-5" d="M123.6,85.18c0,.66,0,1.3-.07,1.95l-.36.19c-3.67,2.05-7.89,4.24-12.64,6.45l-2.32,1.06c-3.72,1.68-7,3-9.72,4.07l-.34.13c-5.3,2-10.7,3.85-16.16,5.42-.94.27-1.87.54-2.81.79V93.68c4.69-1.36,9.63-3,14.77-5l.36-.14c1.42-.55,2.81-1.1,4.18-1.67A185.84,185.84,0,0,0,121.7,75.38a1.8,1.8,0,0,1,.08.21A25.85,25.85,0,0,1,123.6,85.18Z" transform="translate(-5 -5)"/><path class="cls-5" d="M119.4,71l-.1.06c-1.65.94-3.56,2-5.69,3.12-.3.15-2.6,1.36-5.13,2.6l-2.1,1h0q-3.9,1.86-7.89,3.54c-2,.84-4,1.65-6,2.42q-6.57,2.53-13.33,4.59V76.67q4.78-1.55,9.48-3.36l1.46-.57,1.53-.61h0c1.64-.67,4-1.66,6.84-2.95C102,67.58,106.31,65.51,111,63l.06,0,0,0a23.22,23.22,0,0,1,2.62,1.78h0a25.21,25.21,0,0,1,5.67,6.16Z" transform="translate(-5 -5)"/><path class="cls-5" d="M105,60.42q-2.67,1.35-5.39,2.62l-1.12.52q-5.73,2.64-11.63,4.91Q83,69.94,79.18,71.24V59.55H98.52a25.47,25.47,0,0,1,4.22.36h0C103.52,60.05,104.26,60.22,105,60.42Z" transform="translate(-5 -5)"/></g><rect class="cls-6" x="55.21" y="28.55" width="79.59" height="106.4"/></svg>